<?xml version="1.0" encoding="UTF-8" standalone="no"?>
<svg
   xmlns:dc="http://purl.org/dc/elements/1.1/"
   xmlns:cc="http://creativecommons.org/ns#"
   xmlns:rdf="http://www.w3.org/1999/02/22-rdf-syntax-ns#"
   xmlns:svg="http://www.w3.org/2000/svg"
   xmlns="http://www.w3.org/2000/svg"
   xmlns:xlink="http://www.w3.org/1999/xlink"
   xmlns:sodipodi="http://sodipodi.sourceforge.net/DTD/sodipodi-0.dtd"
   xmlns:inkscape="http://www.inkscape.org/namespaces/inkscape"
   width="165.61343"
   height="165.61343"
   viewBox="0 0 43.818554 43.818554"
   version="1.1"
   id="svg8"
   inkscape:version="1.0.1 (3bc2e813f5, 2020-09-07)"
   sodipodi:docname="icon.svg"
   inkscape:export-xdpi="74.196877"
   inkscape:export-ydpi="74.196877"
   inkscape:export-filename="D:\coding\java\minecraft\amecs-api\src\main\resources\assets\amecsapi\icon.png">
  <defs
     id="defs2">
    <linearGradient
       inkscape:collect="always"
       id="linearGradient1094">
      <stop
         style="stop-color:#00d400;stop-opacity:1"
         offset="0"
         id="stop1090" />
      <stop
         id="stop1098"
         offset="0.56775624"
         style="stop-color:#00d4aa;stop-opacity:1" />
      <stop
         style="stop-color:#00aad4;stop-opacity:1"
         offset="1"
         id="stop1092" />
    </linearGradient>
    <linearGradient
       inkscape:collect="always"
       xlink:href="#linearGradient1094"
       id="linearGradient1096"
       x1="26.505583"
       y1="2.2258186"
       x2="60.287205"
       y2="44.370167"
       gradientUnits="userSpaceOnUse" />
  </defs>
  <sodipodi:namedview
     id="base"
     pagecolor="#ffffff"
     bordercolor="#666666"
     borderopacity="1.0"
     inkscape:pageopacity="0.0"
     inkscape:pageshadow="2"
     inkscape:zoom="2.8284272"
     inkscape:cx="67.801759"
     inkscape:cy="59.289078"
     inkscape:document-units="mm"
     inkscape:current-layer="layer1"
     showgrid="false"
     inkscape:window-width="1920"
     inkscape:window-height="1018"
     inkscape:window-x="-6"
     inkscape:window-y="-6"
     inkscape:window-maximized="1"
     units="px"
     fit-margin-top="0"
     fit-margin-left="0"
     fit-margin-right="0"
     fit-margin-bottom="0"
     inkscape:document-rotation="0" />
  <metadata
     id="metadata5">
    <rdf:RDF>
      <cc:Work
         rdf:about="">
        <dc:format>image/svg+xml</dc:format>
        <dc:type
           rdf:resource="http://purl.org/dc/dcmitype/StillImage" />
        <dc:title></dc:title>
      </cc:Work>
    </rdf:RDF>
  </metadata>
  <g
     inkscape:label="Layer 1"
     inkscape:groupmode="layer"
     id="layer1"
     transform="translate(-23.235253,-5.7118137)">
    <circle
       style="fill:url(#linearGradient1096);fill-opacity:1;stroke:#ffffff;stroke-width:1.05999994;stroke-miterlimit:4;stroke-dasharray:none;stroke-opacity:1"
       id="path815"
       cx="45.144531"
       cy="27.621092"
       r="21.379278" />
    <g
       aria-label="α"
       style="font-style:normal;font-variant:normal;font-weight:normal;font-stretch:normal;font-size:10.58333302px;line-height:1.25;font-family:Calibri;-inkscape-font-specification:Calibri;letter-spacing:0px;word-spacing:0px;fill:#ffffff;fill-opacity:1;stroke:none;stroke-width:0.26458332"
       id="text820-7"
       transform="translate(-1.8426342,0.3307295)" />
    <g
       aria-label="α"
       style="font-style:normal;font-variant:normal;font-weight:normal;font-stretch:normal;font-size:10.58333302px;line-height:1.25;font-family:Calibri;-inkscape-font-specification:Calibri;letter-spacing:0px;word-spacing:0px;fill:#ffffff;fill-opacity:1;stroke:none;stroke-width:0.26458332"
       id="text820-7-1"
       transform="matrix(1.0157408,0,0,-1.1837018,-2.9260684,61.785628)">
      <path
         id="path883"
         style="font-style:normal;font-variant:normal;font-weight:normal;font-stretch:normal;font-family:'Cambria Math';-inkscape-font-specification:'Cambria Math';fill:none;fill-opacity:1;stroke:#ffffff;stroke-width:4.59875"
         d="M 55.736328 35.521484 C 36.559411 35.84487 23.990477 60.067551 23.400391 82.494141 L 23.378906 82.494141 C 23.38061 82.598082 23.38645 82.702615 23.388672 82.806641 C 23.38645 82.910667 23.38061 83.0152 23.378906 83.119141 L 23.400391 83.119141 C 23.990477 105.54573 36.559411 129.76841 55.736328 130.0918 C 73.537808 130.39199 74.194864 112.3233 86.220703 102.4375 C 88.550647 100.52218 95.982546 92.779214 99.806641 92.677734 C 129.54497 91.888564 130.79932 128.68591 103.96484 120.66211 C 118.69457 137.8498 141.64989 123.02495 137.80664 106.33984 C 133.96338 89.654731 113.40826 90.005718 105.06641 87.044922 C 102.51545 86.139505 123.07077 83.024925 124.3125 82.837891 L 124.7207 82.837891 C 124.7207 82.837891 124.5289 82.808048 124.51953 82.806641 C 124.5289 82.805234 124.7207 82.775391 124.7207 82.775391 L 124.3125 82.775391 C 123.07077 82.588357 102.51545 79.473776 105.06641 78.568359 C 113.40826 75.607563 133.96338 75.958551 137.80664 59.273438 C 141.64989 42.588329 118.69457 27.763482 103.96484 44.951172 C 130.79932 36.927369 129.54497 73.724718 99.806641 72.935547 C 95.982546 72.834067 88.550647 65.091101 86.220703 63.175781 C 74.194864 53.289983 73.537808 35.22129 55.736328 35.521484 z M 53.751953 46.076172 C 55.080895 46.119171 56.449189 46.3747 57.84375 46.824219 C 67.12586 49.816189 74.016789 60.900713 76.552734 69.029297 C 78.779945 76.168278 86.090885 81.868756 89.830078 82.806641 C 86.090989 83.744262 78.780013 89.444784 76.552734 96.583984 C 74.016789 104.71257 67.12586 115.79709 57.84375 118.78906 C 46.687265 122.38521 37.125985 113.56853 37.232422 82.806641 C 37.13929 55.889985 44.449357 45.775179 53.751953 46.076172 z "
         transform="matrix(0.26048312,0,0,-0.22352195,25.755903,47.371571)" />
    </g>
  </g>
</svg>
